<svg xmlns="http://www.w3.org/2000/svg" width="1600" height="520" viewBox="0 0 1600 520" role="img" aria-label="Adaptive IPsec Overlay banner">
  <defs>
    <linearGradient id="bg" x1="0" y1="0" x2="1" y2="1">
      <stop offset="0" stop-color="#07111f"/>
      <stop offset="0.56" stop-color="#0b1728"/>
      <stop offset="1" stop-color="#101827"/>
    </linearGradient>
    <linearGradient id="blue" x1="0" y1="0" x2="1" y2="0">
      <stop offset="0" stop-color="#42a5ff"/>
      <stop offset="1" stop-color="#1f6feb"/>
    </linearGradient>
    <linearGradient id="teal" x1="0" y1="0" x2="1" y2="0">
      <stop offset="0" stop-color="#20d0c4"/>
      <stop offset="1" stop-color="#36d399"/>
    </linearGradient>
    <linearGradient id="red" x1="0" y1="0" x2="1" y2="0">
      <stop offset="0" stop-color="#ff6b6b"/>
      <stop offset="1" stop-color="#ef4444"/>
    </linearGradient>
    <filter id="glow" x="-40%" y="-40%" width="180%" height="180%">
      <feGaussianBlur stdDeviation="5" result="blur"/>
      <feMerge>
        <feMergeNode in="blur"/>
        <feMergeNode in="SourceGraphic"/>
      </feMerge>
    </filter>
    <pattern id="grid" width="28" height="28" patternUnits="userSpaceOnUse">
      <path d="M28 0H0V28" fill="none" stroke="#22314d" stroke-width="1" opacity="0.35"/>
    </pattern>
  </defs>

  <rect width="1600" height="520" fill="url(#bg)"/>
  <rect width="1600" height="520" fill="url(#grid)" opacity="0.45"/>

  <g opacity="0.24" stroke="#5ea0ff" stroke-width="2" fill="none">
    <path d="M90 455C260 390 365 470 520 430C690 386 800 330 975 365C1140 398 1240 430 1510 350"/>
    <path d="M102 110C240 145 340 70 515 118C715 174 860 88 1062 148C1250 204 1335 124 1510 170"/>
  </g>

  <g transform="translate(78 60)">
    <rect x="0" y="0" width="92" height="92" rx="22" fill="#0e2036" stroke="#2f80ed" stroke-width="3"/>
    <path d="M46 20l26 15v30L46 80L20 65V35z" fill="none" stroke="#8cc8ff" stroke-width="5" stroke-linejoin="round"/>
    <path d="M31 49h38M46 31v36" stroke="#2f80ed" stroke-width="5" stroke-linecap="round"/>
  </g>

  <text x="195" y="100" font-family="Segoe UI, Inter, Arial, sans-serif" font-size="56" font-weight="800" fill="#f8fafc">
    Adaptive <tspan fill="#42a5ff">IPsec</tspan> Overlay
  </text>
  <text x="198" y="140" font-family="Segoe UI, Inter, Arial, sans-serif" font-size="21" fill="#b9c6d8" letter-spacing="2">
    ROUTED IKE CONTROL-PLANE. DIRECT ESP DATA-PLANE.
  </text>
  <text x="198" y="177" font-family="Segoe UI, Inter, Arial, sans-serif" font-size="18" fill="#8fa3bc">
    Research prototype for adaptive IPsec/IKE routing across Linux, OpenWRT and RouterOS 7 nodes.
  </text>

  <g transform="translate(70 230)">
    <rect width="450" height="160" rx="12" fill="#101c2e" stroke="#263c5e"/>
    <circle cx="72" cy="62" r="36" fill="#102944" stroke="#42a5ff" stroke-width="3"/>
    <text x="72" y="76" font-family="Segoe UI, Arial" font-size="42" text-anchor="middle" fill="#f8fafc">L</text>
    <text x="128" y="48" font-family="Segoe UI, Arial" font-size="29" font-weight="700" fill="#42a5ff">Linux</text>
    <text x="128" y="78" font-family="Segoe UI, Arial" font-size="17" fill="#c5d4e8">Endpoint and intermediate node</text>
    <text x="128" y="109" font-family="Segoe UI, Arial" font-size="16" fill="#8fb2df">strongSwan, nftables, XFRM bypass</text>
    <text x="128" y="134" font-family="Segoe UI, Arial" font-size="16" fill="#8fb2df">systemd service and CLI scripts</text>
  </g>

  <g transform="translate(560 230)">
    <rect width="450" height="160" rx="12" fill="#0d2228" stroke="#245765"/>
    <circle cx="72" cy="62" r="36" fill="#0b3035" stroke="#20d0c4" stroke-width="3"/>
    <text x="72" y="76" font-family="Segoe UI, Arial" font-size="42" text-anchor="middle" fill="#f8fafc">O</text>
    <text x="128" y="48" font-family="Segoe UI, Arial" font-size="29" font-weight="700" fill="#20d0c4">OpenWRT</text>
    <text x="128" y="78" font-family="Segoe UI, Arial" font-size="17" fill="#c5e8e4">Router endpoint and relay profile</text>
    <text x="128" y="109" font-family="Segoe UI, Arial" font-size="16" fill="#8fded6">strongSwan, nftables, init.d</text>
    <text x="128" y="134" font-family="Segoe UI, Arial" font-size="16" fill="#8fded6">compact deployment for lab routers</text>
  </g>

  <g transform="translate(1050 230)">
    <rect width="450" height="160" rx="12" fill="#2a1117" stroke="#62313b"/>
    <circle cx="72" cy="62" r="36" fill="#37151c" stroke="#ff6b6b" stroke-width="3"/>
    <text x="72" y="76" font-family="Segoe UI, Arial" font-size="42" text-anchor="middle" fill="#f8fafc">R</text>
    <text x="128" y="48" font-family="Segoe UI, Arial" font-size="29" font-weight="700" fill="#ff6b6b">RouterOS 7</text>
    <text x="128" y="78" font-family="Segoe UI, Arial" font-size="17" fill="#f0c8cf">MikroTik intermediate profile</text>
    <text x="128" y="109" font-family="Segoe UI, Arial" font-size="16" fill="#e8a3ad">container package, Python daemon</text>
    <text x="128" y="134" font-family="Segoe UI, Arial" font-size="16" fill="#e8a3ad">relay only, no strongSwan endpoint</text>
  </g>

  <g transform="translate(110 455)" font-family="Segoe UI, Arial" font-size="16">
    <circle cx="0" cy="0" r="24" fill="#102944" stroke="#42a5ff" stroke-width="3"/>
    <text x="0" y="6" text-anchor="middle" fill="#f8fafc">A</text>
    <circle cx="420" cy="0" r="18" fill="#142d28" stroke="#36d399" stroke-width="3"/>
    <circle cx="760" cy="0" r="18" fill="#142d28" stroke="#36d399" stroke-width="3"/>
    <circle cx="1100" cy="0" r="18" fill="#142d28" stroke="#36d399" stroke-width="3"/>
    <circle cx="1380" cy="0" r="24" fill="#102944" stroke="#42a5ff" stroke-width="3"/>
    <text x="1380" y="6" text-anchor="middle" fill="#f8fafc">B</text>

    <path d="M24 0H400M438 0H742M778 0H1082M1118 0H1356" stroke="#36d399" stroke-width="4" stroke-dasharray="14 10" fill="none" filter="url(#glow)"/>
    <path d="M20 26C300 75 1040 75 1358 26" stroke="url(#blue)" stroke-width="4" stroke-dasharray="18 10" fill="none"/>
    <text x="520" y="-24" fill="#36d399" font-weight="700">IKE control-plane over selected overlay nodes</text>
    <text x="590" y="76" fill="#42a5ff" font-weight="700">ESP proto 50 direct endpoint-to-endpoint</text>
  </g>
</svg>
